<svg width="348" height="278" viewBox="0 0 348 278" fill="none" xmlns="http://www.w3.org/2000/svg">
<g clip-path="url(#clip0_13_3)" filter="url(#filter0_d_13_3)">
<mask id="mask0_13_3" style="mask-type:luminance" maskUnits="userSpaceOnUse" x="-108" y="-22" width="545" height="397">
<path d="M436.203 -21.4766H-107.412V374.304H436.203V-21.4766Z" fill="white"/>
</mask>
<g mask="url(#mask0_13_3)">
<mask id="mask1_13_3" style="mask-type:luminance" maskUnits="userSpaceOnUse" x="24" y="12" width="288" height="256">
<path d="M311.27 12.1094H24.5597V267.664H311.27V12.1094Z" fill="white"/>
</mask>
<g mask="url(#mask1_13_3)">
<path fill-rule="evenodd" clip-rule="evenodd" d="M167.095 12.1094L289.971 75.998V203.775L167.095 267.664L44.2195 203.775V75.998L167.095 12.1094Z" fill="#151515" stroke="#151515"/>
</g>
<path d="M270.288 52.2685L269.927 51.9221L205.589 118.905L203.879 117.491L267.233 51.5334L267.233 51.5331L267.958 50.7767L270.312 51.5215L269.927 51.9221L270.288 52.2685ZM33.2136 -19.6661L32.751 -20.0481L34.8958 -20.9024L35.7799 -20.1716L161.371 83.6497L160.082 85.2108L33.2138 -19.666L33.2136 -19.6661ZM164.706 86.4068L202.411 117.576L201.004 119.04L163.417 87.9678L164.706 86.4068ZM191.929 51.8875L164.573 84.9988L162.779 83.516L189.176 51.566L188.815 51.2679L189.176 51.5659L189.806 50.8033L192.27 51.4744L191.929 51.8873L191.929 51.8875ZM-25.743 311.696L-25.4012 311.282L-25.7866 310.964L-25.4012 311.282L102.776 156.141L104.698 157.47L-22.6464 311.604L-22.6467 311.604L-23.2779 312.367L-25.743 311.696ZM46.4189 281.423L46.8034 281.023L141.225 182.72L143.07 183.995L49.4997 281.411L49.8525 281.75L49.4997 281.412L48.7731 282.168L46.4189 281.423ZM293.741 284.642L291.779 285.577L290.772 284.88L290.544 285.209L290.772 284.88L214.944 232.463L216.266 231.086L293.204 284.271L293.741 284.642ZM387.354 51.5214L386.969 51.9221L387.329 52.2685L386.969 51.9221L270.829 172.837L269.118 171.422L384.274 51.5335L385.001 50.7766L387.354 51.5214ZM105.259 153.136L160.215 86.6188L162.009 88.1016L107.181 154.464L105.259 153.136ZM-50.117 46.9453L103.794 153.339L102.59 154.797L-52.5513 47.5534L-52.5514 47.5534L-53.0861 47.1835L-51.1241 46.2488L-50.1171 46.9452L-50.117 46.9453ZM141.094 181.413L106.163 157.267L107.367 155.809L142.416 180.037L141.094 181.413ZM211.432 230.036L144.605 183.84L145.927 182.464L212.755 228.659L211.432 230.036ZM163.845 281.023L211.564 231.342L213.408 232.618L166.541 281.411L166.886 281.743L166.541 281.412L165.815 282.168L163.46 281.423L163.845 281.023ZM268.033 175.747L216.134 229.78L214.29 228.505L266.322 174.333L268.033 175.747ZM360.93 251.245L269.5 175.663L270.907 174.199L363.497 250.739L363.959 251.121L361.814 251.976L360.93 251.245L360.612 251.63L360.93 251.245ZM205.667 120.267L267.651 171.507L266.244 172.971L204.261 121.732L205.667 120.267ZM201.083 120.402L202.793 121.816L145.796 181.157L143.951 179.882L201.083 120.402Z" fill="white" stroke="white"/>
</g>
</g>
<defs>
<filter id="filter0_d_13_3" x="0" y="0" width="348" height="301" filterUnits="userSpaceOnUse" color-interpolation-filters="sRGB">
<feFlood flood-opacity="0" result="BackgroundImageFix"/>
<feColorMatrix in="SourceAlpha" type="matrix" values="0 0 0 0 0 0 0 0 0 0 0 0 0 0 0 0 0 0 127 0" result="hardAlpha"/>
<feOffset dy="4"/>
<feGaussianBlur stdDeviation="2"/>
<feComposite in2="hardAlpha" operator="out"/>
<feColorMatrix type="matrix" values="0 0 0 0 0 0 0 0 0 0 0 0 0 0 0 0 0 0 0.25 0"/>
<feBlend mode="normal" in2="BackgroundImageFix" result="effect1_dropShadow_13_3"/>
<feBlend mode="normal" in="SourceGraphic" in2="effect1_dropShadow_13_3" result="shape"/>
</filter>
<clipPath id="clip0_13_3">
<rect width="340" height="293" fill="white" transform="translate(4)"/>
</clipPath>
</defs>
</svg>
