<svg width="101" height="80" viewBox="0 0 101 80" fill="none" xmlns="http://www.w3.org/2000/svg">
<g clip-path="url(#clip0_3_39)">
<g clip-path="url(#clip1_3_39)">
<path fill-rule="evenodd" clip-rule="evenodd" d="M51.2628 6.27979L74.148 18.2252V42.116L51.2628 54.0614L28.3776 42.116V18.2252L51.2628 6.27979Z" fill="white" stroke="white"/>
</g>
<path fill-rule="evenodd" clip-rule="evenodd" d="M29.4282 56.6965L70.4821 13.7883L70.6576 13.6049L70.0211 13.4027L69.8459 13.5861L28.7917 56.4943L28.6163 56.6777L29.2528 56.8799L29.4282 56.6965ZM51.2268 56.6965L92.2807 13.7883L92.4562 13.6049L91.82 13.4027L91.6445 13.5861L50.5903 56.4943L50.4149 56.6777L51.0514 56.8799L51.2268 56.6965ZM15.9958 62.3365L55.9598 13.7766L56.1154 13.5877L55.4591 13.4083L55.3035 13.5974L15.3392 62.1572L15.1836 62.3462L15.8399 62.5256L15.9958 62.3365ZM74.8032 57.0895L10.8607 12.7161L10.6288 12.5551L10.0695 12.8226L10.3014 12.9836L74.2442 57.3572L74.4761 57.5182L75.0354 57.2507L74.8035 57.0897L74.8032 57.0895ZM87.9014 50.8248L26.8651 0.171945L26.6579 0L26.0611 0.238639L26.2685 0.410585L87.3046 51.0634L87.5118 51.2354L88.1086 50.9967L87.9011 50.8248H87.9014Z" fill="#151515"/>
<path d="M4.965 65.862V66.811H3.6V74H2.43V66.811H1.065V65.862H4.965ZM10.9134 67.656H12.0184L10.8484 74H9.30141L8.54741 69.203L7.79341 74H6.24641L5.08941 67.656H6.19441L7.03941 72.999L7.85841 67.656H9.24941L10.0424 72.999L10.9134 67.656ZM13.786 67.656H15.177C15.983 67.656 16.386 68.0417 16.386 68.813V72.856C16.386 73.6187 15.983 74 15.177 74H13.786C12.9887 74 12.59 73.6187 12.59 72.856V68.813C12.59 68.0417 12.9887 67.656 13.786 67.656ZM15.229 72.687V68.969C15.229 68.813 15.203 68.709 15.151 68.657C15.099 68.605 14.995 68.579 14.839 68.579H14.124C13.968 68.579 13.864 68.605 13.812 68.657C13.7687 68.709 13.747 68.813 13.747 68.969V72.687C13.747 72.843 13.7687 72.947 13.812 72.999C13.864 73.051 13.968 73.077 14.124 73.077H14.839C14.995 73.077 15.099 73.051 15.151 72.999C15.203 72.947 15.229 72.843 15.229 72.687ZM17.5185 70.633V69.723H20.3525V70.633H17.5185ZM27.5991 65.862H28.7821L27.4821 74H25.8571L24.9471 67.89L24.0501 74H22.4251L21.1251 65.862H22.3341L23.2441 72.934L24.2971 65.862H25.5971L26.6501 72.934L27.5991 65.862ZM31.465 67.656H31.92C32.7087 67.656 33.103 68.0417 33.103 68.813V74H31.933V68.982C31.933 68.826 31.907 68.7263 31.855 68.683C31.803 68.631 31.699 68.605 31.543 68.605H31.088C30.932 68.605 30.8193 68.6397 30.75 68.709C30.6893 68.7783 30.659 68.8953 30.659 69.06V74H29.489V65.303H30.659V68.163C30.7717 67.825 31.0403 67.656 31.465 67.656ZM35.42 67.656H36.694C37.5087 67.656 37.916 68.0417 37.916 68.813V71.192H35.355V72.7C35.355 72.8473 35.381 72.947 35.433 72.999C35.485 73.051 35.589 73.077 35.745 73.077H36.343C36.499 73.077 36.603 73.051 36.655 72.999C36.707 72.947 36.733 72.843 36.733 72.687V72.167H37.877V72.856C37.877 73.6187 37.474 74 36.668 74H35.42C34.614 74 34.211 73.6187 34.211 72.856V68.813C34.211 68.0417 34.614 67.656 35.42 67.656ZM35.355 70.334H36.759V68.956C36.759 68.8087 36.733 68.709 36.681 68.657C36.6377 68.605 36.538 68.579 36.382 68.579H35.745C35.589 68.579 35.485 68.605 35.433 68.657C35.381 68.709 35.355 68.8087 35.355 68.956V70.334ZM40.1046 67.656H41.3786C42.1933 67.656 42.6006 68.0417 42.6006 68.813V71.192H40.0396V72.7C40.0396 72.8473 40.0656 72.947 40.1176 72.999C40.1696 73.051 40.2736 73.077 40.4296 73.077H41.0276C41.1836 73.077 41.2876 73.051 41.3396 72.999C41.3916 72.947 41.4176 72.843 41.4176 72.687V72.167H42.5616V72.856C42.5616 73.6187 42.1586 74 41.3526 74H40.1046C39.2986 74 38.8956 73.6187 38.8956 72.856V68.813C38.8956 68.0417 39.2986 67.656 40.1046 67.656ZM40.0396 70.334H41.4436V68.956C41.4436 68.8087 41.4176 68.709 41.3656 68.657C41.3223 68.605 41.2226 68.579 41.0666 68.579H40.4296C40.2736 68.579 40.1696 68.605 40.1176 68.657C40.0656 68.709 40.0396 68.8087 40.0396 68.956V70.334ZM44.7762 74H43.6062V65.303H44.7762V74ZM47.0997 67.656H48.3737C49.1884 67.656 49.5957 68.0417 49.5957 68.813V71.192H47.0347V72.7C47.0347 72.8473 47.0607 72.947 47.1127 72.999C47.1647 73.051 47.2687 73.077 47.4247 73.077H48.0227C48.1787 73.077 48.2827 73.051 48.3347 72.999C48.3867 72.947 48.4127 72.843 48.4127 72.687V72.167H49.5567V72.856C49.5567 73.6187 49.1537 74 48.3477 74H47.0997C46.2937 74 45.8907 73.6187 45.8907 72.856V68.813C45.8907 68.0417 46.2937 67.656 47.0997 67.656ZM47.0347 70.334H48.4387V68.956C48.4387 68.8087 48.4127 68.709 48.3607 68.657C48.3174 68.605 48.2177 68.579 48.0617 68.579H47.4247C47.2687 68.579 47.1647 68.605 47.1127 68.657C47.0607 68.709 47.0347 68.8087 47.0347 68.956V70.334ZM52.9673 65.303H54.1373V74H52.9673V73.493C52.8546 73.831 52.586 74 52.1613 74H51.6933C50.9133 74 50.5233 73.6187 50.5233 72.856V68.8C50.5233 68.0287 50.9133 67.643 51.6933 67.643H52.1613C52.586 67.643 52.8546 67.812 52.9673 68.15V65.303ZM52.0833 73.051H52.5383C52.6943 73.051 52.8026 73.0163 52.8633 72.947C52.9326 72.8777 52.9673 72.7607 52.9673 72.596V69.047C52.9673 68.8823 52.9326 68.7653 52.8633 68.696C52.8026 68.6267 52.6943 68.592 52.5383 68.592H52.0833C51.9273 68.592 51.8233 68.618 51.7713 68.67C51.7193 68.722 51.6933 68.8217 51.6933 68.969V72.674C51.6933 72.83 51.7193 72.934 51.7713 72.986C51.8233 73.0293 51.9273 73.051 52.0833 73.051ZM60.2588 74L59.9338 72.115H58.2178L57.9188 74H56.7488L58.1918 65.862H59.8948L61.4418 74H60.2588ZM58.3608 71.166H59.7778L59.0368 66.876L58.3608 71.166ZM64.5327 65.303H65.7027V74H64.5327V73.493C64.4201 73.831 64.1514 74 63.7267 74H63.2587C62.4787 74 62.0887 73.6187 62.0887 72.856V68.8C62.0887 68.0287 62.4787 67.643 63.2587 67.643H63.7267C64.1514 67.643 64.4201 67.812 64.5327 68.15V65.303ZM63.6487 73.051H64.1037C64.2597 73.051 64.3681 73.0163 64.4287 72.947C64.4981 72.8777 64.5327 72.7607 64.5327 72.596V69.047C64.5327 68.8823 64.4981 68.7653 64.4287 68.696C64.3681 68.6267 64.2597 68.592 64.1037 68.592H63.6487C63.4927 68.592 63.3887 68.618 63.3367 68.67C63.2847 68.722 63.2587 68.8217 63.2587 68.969V72.674C63.2587 72.83 63.2847 72.934 63.3367 72.986C63.3887 73.0293 63.4927 73.051 63.6487 73.051ZM67.5013 67.656L68.3333 73.012L69.1783 67.656H70.3483L69.1783 74H67.5013L66.3313 67.656H67.5013ZM72.1603 67.656H73.4343C74.2489 67.656 74.6563 68.0417 74.6563 68.813V71.192H72.0953V72.7C72.0953 72.8473 72.1213 72.947 72.1733 72.999C72.2253 73.051 72.3293 73.077 72.4853 73.077H73.0833C73.2393 73.077 73.3433 73.051 73.3953 72.999C73.4473 72.947 73.4733 72.843 73.4733 72.687V72.167H74.6173V72.856C74.6173 73.6187 74.2143 74 73.4083 74H72.1603C71.3543 74 70.9513 73.6187 70.9513 72.856V68.813C70.9513 68.0417 71.3543 67.656 72.1603 67.656ZM72.0953 70.334H73.4993V68.956C73.4993 68.8087 73.4733 68.709 73.4213 68.657C73.3779 68.605 73.2783 68.579 73.1223 68.579H72.4853C72.3293 68.579 72.2253 68.605 72.1733 68.657C72.1213 68.709 72.0953 68.8087 72.0953 68.956V70.334ZM77.6378 67.656H78.0928C78.8815 67.656 79.2758 68.0417 79.2758 68.813V74H78.1058V68.982C78.1058 68.826 78.0798 68.7263 78.0278 68.683C77.9758 68.631 77.8718 68.605 77.7158 68.605H77.2608C77.1048 68.605 76.9922 68.6397 76.9228 68.709C76.8622 68.7783 76.8318 68.8953 76.8318 69.06V74H75.6618V67.656H76.8318V68.163C76.9445 67.825 77.2132 67.656 77.6378 67.656ZM82.5549 68.605H81.6839V72.622C81.6839 72.778 81.7056 72.882 81.7489 72.934C81.8009 72.9773 81.9049 72.999 82.0609 72.999H82.5549V74H81.7229C80.9082 74 80.5009 73.6187 80.5009 72.856V68.605H79.9029V67.656H80.5009V66.577H81.6839V67.656H82.5549V68.605ZM85.6846 67.656H86.8546V74H85.6846V73.493C85.572 73.831 85.3033 74 84.8786 74H84.4106C83.6306 74 83.2406 73.6187 83.2406 72.856V67.656H84.4106V72.674C84.4106 72.83 84.4366 72.934 84.4886 72.986C84.5406 73.0293 84.6446 73.051 84.8006 73.051H85.2556C85.4116 73.051 85.52 73.0163 85.5806 72.947C85.65 72.8777 85.6846 72.7607 85.6846 72.596V67.656ZM90.1987 67.643H90.4587V68.657H89.9907C89.4447 68.657 89.1717 68.9777 89.1717 69.619V74H88.0017V67.656H89.1717V68.436C89.241 68.2107 89.3624 68.0243 89.5357 67.877C89.7177 67.721 89.9387 67.643 90.1987 67.643ZM92.2823 67.656H93.5563C94.371 67.656 94.7783 68.0417 94.7783 68.813V71.192H92.2173V72.7C92.2173 72.8473 92.2433 72.947 92.2953 72.999C92.3473 73.051 92.4513 73.077 92.6073 73.077H93.2053C93.3613 73.077 93.4653 73.051 93.5173 72.999C93.5693 72.947 93.5953 72.843 93.5953 72.687V72.167H94.7393V72.856C94.7393 73.6187 94.3363 74 93.5303 74H92.2823C91.4763 74 91.0733 73.6187 91.0733 72.856V68.813C91.0733 68.0417 91.4763 67.656 92.2823 67.656ZM92.2173 70.334H93.6213V68.956C93.6213 68.8087 93.5953 68.709 93.5433 68.657C93.5 68.605 93.4003 68.579 93.2443 68.579H92.6073C92.4513 68.579 92.3473 68.605 92.2953 68.657C92.2433 68.709 92.2173 68.8087 92.2173 68.956V70.334ZM97.9029 72.726V71.673C97.9029 71.517 97.8769 71.4173 97.8249 71.374C97.7729 71.322 97.6689 71.296 97.5129 71.296H96.8499C96.0439 71.296 95.6409 70.9147 95.6409 70.152V68.813C95.6409 68.0417 96.0439 67.656 96.8499 67.656H97.7989C98.6136 67.656 99.0209 68.0417 99.0209 68.813V69.424H97.8769V68.93C97.8769 68.774 97.8509 68.6743 97.7989 68.631C97.7469 68.579 97.6429 68.553 97.4869 68.553H97.1749C97.0189 68.553 96.9149 68.579 96.8629 68.631C96.8109 68.6743 96.7849 68.774 96.7849 68.93V70.022C96.7849 70.178 96.8109 70.282 96.8629 70.334C96.9149 70.3773 97.0189 70.399 97.1749 70.399H97.8509C98.6482 70.399 99.0469 70.7847 99.0469 71.556V72.856C99.0469 73.6187 98.6439 74 97.8379 74H96.8759C96.0699 74 95.6669 73.6187 95.6669 72.856V72.232H96.8109V72.726C96.8109 72.882 96.8369 72.986 96.8889 73.038C96.9409 73.0813 97.0449 73.103 97.2009 73.103H97.5129C97.6689 73.103 97.7729 73.0813 97.8249 73.038C97.8769 72.986 97.9029 72.882 97.9029 72.726Z" fill="white"/>
</g>
<defs>
<clipPath id="clip0_3_39">
<rect width="101" height="80" fill="white"/>
</clipPath>
<clipPath id="clip1_3_39">
<rect width="53.3988" height="47.7816" fill="white" transform="translate(24.716 6.27979)"/>
</clipPath>
</defs>
</svg>
